HIERARCHY
ROOT joint_0
{
	OFFSET 0.000000 0.000000 0.000000
	CHANNELS 6 Xposition Yposition Zposition Zrotation Yrotation Xrotation 
	JOINT joint_1
	{
		OFFSET 6.590088 -1.122192 114.019043
		CHANNELS 3 Zrotation Yrotation Xrotation
		JOINT joint_2
		{
			OFFSET -5.956055 -0.820435 104.151001
			CHANNELS 3 Zrotation Yrotation Xrotation
			JOINT joint_3
			{
				OFFSET -7.343506 -1.103027 103.942993
				CHANNELS 3 Zrotation Yrotation Xrotation
				JOINT joint_4
				{
					OFFSET 3.109131 -2.857056 147.715942
					CHANNELS 3 Zrotation Yrotation Xrotation
					JOINT joint_5
					{
						OFFSET 28.592285 -2.852295 87.703979
						CHANNELS 3 Zrotation Yrotation Xrotation
						End Site
						{
							OFFSET 0.000000 0.000000 0.000000
						}
					}
				}
				JOINT joint_6
				{
					OFFSET -0.332520 -33.687378 82.401978
					CHANNELS 3 Zrotation Yrotation Xrotation
					JOINT joint_7
					{
						OFFSET -7.397461 -168.719177 -22.750977
						CHANNELS 3 Zrotation Yrotation Xrotation
						JOINT joint_8
						{
							OFFSET 17.065918 -24.903137 -272.721069
							CHANNELS 3 Zrotation Yrotation Xrotation
							JOINT joint_9
							{
								OFFSET 33.311279 -37.031616 -278.192993
								CHANNELS 3 Zrotation Yrotation Xrotation
								End Site
								{
									OFFSET 0.000000 0.000000 0.000000
								}
							}
						}
					}
				}
				JOINT joint_10
				{
					OFFSET 3.914307 30.461670 83.552979
					CHANNELS 3 Zrotation Yrotation Xrotation
					JOINT joint_11
					{
						OFFSET 15.543701 166.845459 -30.963013
						CHANNELS 3 Zrotation Yrotation Xrotation
						JOINT joint_12
						{
							OFFSET 35.734863 35.017700 -269.786011
							CHANNELS 3 Zrotation Yrotation Xrotation
							JOINT joint_13
							{
								OFFSET 70.506592 13.977783 -273.320007
								CHANNELS 3 Zrotation Yrotation Xrotation
								End Site
								{
									OFFSET 0.000000 0.000000 0.000000
								}
							}
						}
					}
				}
			}
		}
	}
	JOINT joint_14
	{
		OFFSET -0.314697 -95.093994 -116.004028
		CHANNELS 3 Zrotation Yrotation Xrotation
		JOINT joint_15
		{
			OFFSET -22.490723 2.017883 -455.510986
			CHANNELS 3 Zrotation Yrotation Xrotation
			JOINT joint_16
			{
				OFFSET -46.427490 7.144104 -496.360985
				CHANNELS 3 Zrotation Yrotation Xrotation
				JOINT joint_17
				{
					OFFSET 209.055420 -37.122803 -85.191002
					CHANNELS 3 Zrotation Yrotation Xrotation
					End Site
					{
						OFFSET 0.000000 0.000000 0.000000
					}
				}
			}
		}
	}
	JOINT joint_18
	{
		OFFSET 5.652832 94.642578 -116.244019
		CHANNELS 3 Zrotation Yrotation Xrotation
		JOINT joint_19
		{
			OFFSET -12.379883 -7.332642 -455.843994
			CHANNELS 3 Zrotation Yrotation Xrotation
			JOINT joint_20
			{
				OFFSET -45.227051 -8.172241 -496.457985
				CHANNELS 3 Zrotation Yrotation Xrotation
				JOINT joint_21
				{
					OFFSET 210.522949 -11.530396 -88.809004
					CHANNELS 3 Zrotation Yrotation Xrotation
					End Site
					{
						OFFSET 0.000000 0.000000 0.000000
					}
				}
			}
		}
	}
}
MOTION
Frames: 6
Frame Time: 0.016667
-2479.664795 878.551392 1184.036011 4.797721 -0.004804 0.433751 0.225180 0.188984 -0.587653 0.264313 -0.052548 0.131499 0.249640 0.055961 -0.093085 0.139469 3.467362 -0.169042 0.000000 0.000000 0.000000 -0.109244 -0.807863 1.327970 -0.059689 -0.807469 1.182526 -0.570831 5.649402 2.217324 0.000000 0.000000 0.000000 2.667447 -0.339452 2.299550 -1.005706 -0.303448 -5.303719 0.736386 5.700111 1.916140 0.000000 0.000000 0.000000 -0.946794 -1.613935 -1.993925 -0.990618 0.748998 -0.773328 -1.040059 2.826542 0.079285 0.000000 0.000000 0.000000 3.779400 0.093990 1.113146 3.815810 -1.193970 0.648794 3.718132 0.551892 1.592313 0.000000 0.000000 0.000000 
-2479.320312 878.744446 1183.974976 4.769669 -0.036157 0.429615 0.224832 0.179995 -0.576659 0.263403 -0.051236 0.131795 0.248652 0.055393 -0.093542 0.140972 3.467608 -0.172642 0.000000 0.000000 0.000000 -0.125652 -0.846878 1.356956 -0.051565 -0.845616 1.117049 -0.550405 5.562558 2.272450 0.000000 0.000000 0.000000 2.654526 -0.355617 2.237878 -1.002215 -0.319316 -5.340783 0.751287 5.659429 1.983332 0.000000 0.000000 0.000000 -0.935126 -1.556498 -2.008436 -0.980721 0.735723 -0.760705 -1.029275 2.842821 0.086571 0.000000 0.000000 0.000000 3.790232 0.117160 1.115328 3.826090 -1.128812 0.647280 3.728900 0.518960 1.595107 0.000000 0.000000 0.000000 
-2478.984863 878.943298 1183.901001 4.749858 -0.073918 0.428240 0.219324 0.179625 -0.570238 0.257437 -0.052816 0.130632 0.242909 0.059120 -0.092356 0.141752 3.470895 -0.173716 0.000000 0.000000 0.000000 -0.143289 -0.898780 1.392193 -0.044547 -0.896598 1.055719 -0.535622 5.501322 2.311525 0.000000 0.000000 0.000000 2.640846 -0.383306 2.171186 -0.999168 -0.347160 -5.377912 0.776747 5.651645 2.089663 0.000000 0.000000 0.000000 -0.926343 -1.493031 -2.024401 -0.973611 0.726846 -0.751374 -1.021496 2.848558 0.090758 0.000000 0.000000 0.000000 3.799002 0.153334 1.110092 3.834325 -1.076221 0.652126 3.738315 0.485024 1.597269 0.000000 0.000000 0.000000 
-2478.651855 879.144836 1183.817017 4.734826 -0.115619 0.427420 0.210567 0.183654 -0.565625 0.248308 -0.056444 0.129921 0.233979 0.065003 -0.091707 0.141654 3.477041 -0.171819 0.000000 0.000000 0.000000 -0.161816 -0.958397 1.431449 -0.038114 -0.955346 0.998332 -0.524218 5.455737 2.341356 0.000000 0.000000 0.000000 2.626109 -0.417986 2.101855 -0.996015 -0.381915 -5.416455 0.810152 5.665057 2.226095 0.000000 0.000000 0.000000 -0.919270 -1.426067 -2.040405 -0.968149 0.721481 -0.743194 -1.015432 2.847124 0.092973 0.000000 0.000000 0.000000 3.806541 0.196574 1.102378 3.841400 -1.029317 0.659511 3.746888 0.449374 1.598979 0.000000 0.000000 0.000000 
-2478.317871 879.340454 1183.733032 4.719823 -0.159047 0.424506 0.200791 0.184481 -0.556112 0.237847 -0.058268 0.128068 0.223875 0.070008 -0.089540 0.141616 3.486774 -0.169812 0.000000 0.000000 0.000000 -0.178544 -1.017010 1.471076 -0.032287 -1.012887 0.943708 -0.514297 5.413879 2.363120 0.000000 0.000000 0.000000 2.612166 -0.450233 2.035270 -0.993797 -0.414885 -5.448517 0.838986 5.678066 2.344012 0.000000 0.000000 0.000000 -0.911423 -1.360461 -2.054778 -0.961883 0.722495 -0.733149 -1.008497 2.842791 0.095027 0.000000 0.000000 0.000000 3.813410 0.236113 1.100501 3.847885 -0.971716 0.662446 3.754617 0.409908 1.600131 0.000000 0.000000 0.000000 
-2477.985596 879.525757 1183.649048 4.703658 -0.205009 0.417165 0.189576 0.182998 -0.536752 0.225145 -0.058523 0.121579 0.212026 0.072353 -0.084291 0.141437 3.502798 -0.166841 0.000000 0.000000 0.000000 -0.191540 -1.074732 1.512493 -0.027503 -1.068944 0.891505 -0.506829 5.378947 2.372226 0.000000 0.000000 0.000000 2.600234 -0.477545 1.973158 -0.992454 -0.443718 -5.473101 0.860809 5.684619 2.433910 0.000000 0.000000 0.000000 -0.901425 -1.299208 -2.066701 -0.953492 0.736650 -0.718200 -0.999225 2.834862 0.097393 0.000000 0.000000 0.000000 3.819704 0.266968 1.111070 3.853979 -0.892707 0.655200 3.761275 0.363627 1.600475 0.000000 0.000000 0.000000 
